<?xml version="1.0" encoding="utf-8"?>
<!-- Generator: Adobe Illustrator 19.2.1, SVG Export Plug-In . SVG Version: 6.00 Build 0)  -->
<svg version="1.1" id="Layer_1" xmlns="http://www.w3.org/2000/svg" xmlns:xlink="http://www.w3.org/1999/xlink" x="0px" y="0px"
	 viewBox="0 0 24 24" style="enable-background:new 0 0 24 24;" xml:space="preserve">
<style type="text/css">
	.st0{fill:#2E367A;}
	.st1{fill:#258406;}
	.st2{fill:#666666;}
	.st3{fill:none;stroke:#666666;stroke-miterlimit:10;}
	.st4{fill:none;stroke:#6FBC00;stroke-linecap:round;stroke-linejoin:round;stroke-miterlimit:10;}
	.st5{fill:#6FBC00;}
	.st6{fill:none;stroke:#666666;stroke-linecap:round;stroke-linejoin:round;stroke-miterlimit:10;}
	.st7{fill:none;stroke:#2E367A;stroke-linejoin:round;stroke-miterlimit:10;}
	.st8{fill:none;stroke:#666666;stroke-linejoin:round;stroke-miterlimit:10;}
	.st9{fill:#B20426;}
	.st10{fill:#FF9100;}
	.st11{fill:#FFEC00;}
	.st12{fill:none;stroke:#258406;stroke-linejoin:round;stroke-miterlimit:10;}
	.st13{fill:none;stroke:#2D377A;stroke-miterlimit:10;}
	.st14{fill:#2D377A;}
	.st15{fill:none;stroke:#2E367A;stroke-miterlimit:10;}
</style>
<g>
	<path class="st0" d="M10.5,2c2.5,0,4.5,2,4.5,4.5c0,2.5-2,4.5-4.5,4.5S6,9.1,6,6.6C6,4.1,8,2,10.5,2 M10.5,1C7.5,1,5,3.5,5,6.6
		c0,3.1,2.5,5.5,5.5,5.5s5.5-2.5,5.5-5.5C16.1,3.5,13.6,1,10.5,1L10.5,1z"/>
</g>
<path class="st15" d="M1.5,22.5c0-5.8,3.9-10.5,8.9-10.5s9.1,4.7,9.1,10.4L1.5,22.5z"/>
<line class="st15" x1="20.5" y1="7" x2="20.5" y2="12"/>
<line class="st15" x1="23" y1="9.5" x2="18" y2="9.5"/>
</svg>
