<?xml version="1.0" encoding="utf-8"?>
<!-- Generator: Adobe Illustrator 19.2.1, SVG Export Plug-In . SVG Version: 6.00 Build 0)  -->
<svg version="1.1" id="Layer_1" xmlns="http://www.w3.org/2000/svg" xmlns:xlink="http://www.w3.org/1999/xlink" x="0px" y="0px"
	 viewBox="0 0 30 143.9" style="enable-background:new 0 0 30 143.9;" xml:space="preserve">
<style type="text/css">
	.st0{fill:#2E367A;}
	.st1{fill:#258406;}
	.st2{fill:#666666;}
	.st3{fill:none;stroke:#666666;stroke-miterlimit:10;}
	.st4{fill:none;stroke:#666666;stroke-linecap:round;stroke-linejoin:round;stroke-miterlimit:10;}
	.st5{fill:none;stroke:#2E367A;stroke-linejoin:round;stroke-miterlimit:10;}
	.st6{fill:none;stroke:#666666;stroke-linejoin:round;stroke-miterlimit:10;}
	.st7{fill:#B20426;}
	.st8{fill:#FF9100;}
	.st9{fill:#FFEC00;}
	.st10{fill:none;stroke:#258406;stroke-linejoin:round;stroke-miterlimit:10;}
	.st11{fill:none;stroke:#2D377A;stroke-miterlimit:10;}
	.st12{fill:#2D377A;}
	.st13{fill:none;stroke:#2E367A;stroke-miterlimit:10;}
	.st14{fill:none;stroke:#6FBC00;stroke-miterlimit:10;}
</style>
<g>
	<path class="st0" d="M5,124l2.5-7.4L20,104l5,4.4l-12.7,12.9L5,124z M8.5,117.4l-1.5,4.5l4.6-1.7l11.4-11.7l-3.1-2.7L8.5,117.4z"/>
</g>
<g>
	<polygon class="st0" points="20.6,111.9 17.1,108.6 18,107.7 21.6,111 	"/>
</g>
<g>
	<path class="st0" d="M18.1,19l4.9,4.6V36H7V19H18.1 M18.5,18c0,0-12.4,0-12.5,0v19h18V23.2L18.5,18L18.5,18z M6,18C6,18,6,18,6,18
		C6,18,6,18,6,18L6,18z"/>
</g>
<g>
	<polygon class="st0" points="10,36.6 9,36.6 9,29 21,29 21,36.6 20,36.6 20,30 10,30 	"/>
</g>
<g>
	<polygon class="st0" points="17,23 9,23 9,18.6 10,18.6 10,22 16,22 16,18.4 17,18.4 	"/>
</g>
<path class="st0" d="M6.1,61l17.8,0l0,11l-3.2,0l-1.4,0L19,72.3l-5.5,5.3V73v-1l0,0c0,0-3.2,0-5.9,0c-1.1,0-0.9,0-1.5,0V60 M5,60v13
	c0,0,0.7,0,2.5,0c2.7,0,4.8,0,4.8,0v7l7.3-7l5.3,0l0-13L5,60L5,60z"/>
</svg>
